:SAMPLES-PER-SECOND 24
:FULLY-SPECIFIED
:DEGREES
678
root  -4.51687 40.9965 -32.9002 17.5117 9.4288 -55.0701
RightUpLeg  -8.86849 -26.3896 -55.6677
RightLeg  21.9299 28.0764 9.7794
RightFoot  -19.7986 1.51762 22.1399
RightToes  -1.46215e-006 3.27826e-006 1.63871e-007
Spine  -3.59052 3.82582 0.865462
Spine1  8.99317 -3.41988 27.188
HEad  -25.0942 -37.3042 39.6497
LeftShoulder1  1.34186 -2.63696 -15.0009
LeftArm  26.0787 43.0005 -31.6279
LeftForeArm  52.8653 -78.5305 -80.3641
LeftHand  0.339596 0.600669 -8.39172
RightShoulder  1.56756 2.25551 20.9358
RightArm  -19.8197 -5.02966 -15.3894
RightForeArm  11.0687 -4.58946 9.75191
RightHand  -1.05708 5.12642 -11.9287
LeftUpLeg  -28.4727 30.0691 48.087
LeftLeg  2.52889 10.3659 5.96292
LeftFoot  7.33514 0.191019 -1.43536
LeftToes  1.24762e-006 1.46925e-008 1.29056e-009
679
root  -5.37993 41.0183 -33.5388 20.0176 9.48053 -52.5812
RightUpLeg  -16.2276 -24.9211 -52.4436
RightLeg  35.9485 22.9769 16.8841
RightFoot  -18.5467 1.37003 23.4698
RightToes  -1.46215e-006 3.27826e-006 1.63871e-007
Spine  -3.58717 2.89198 -0.540336
Spine1  9.69251 -4.1617 25.1553
HEad  -27.587 -36.2124 41.4134
LeftShoulder1  1.43628 -2.87283 -15.7427
LeftArm  27.7608 35.1574 -30.2559
LeftForeArm  42.7583 -77.9084 -67.4224
LeftHand  0.368067 0.305899 -8.51126
RightShoulder  1.62677 2.42828 21.1533
RightArm  -20.7561 -5.19772 -14.2593
RightForeArm  10.9304 -5.06187 9.38159
RightHand  -0.955599 5.14438 -10.7975
LeftUpLeg  -30.2545 31.2615 46.3918
LeftLeg  0.254729 10.2899 3.88481
LeftFoot  9.82068 0.251733 -1.66688
LeftToes  1.24762e-006 1.46925e-008 1.29056e-009
680
root  -5.8539 40.9866 -33.9635 21.7158 7.83041 -50.0915
RightUpLeg  -25.6201 -30.6272 -45.0739
RightLeg  49.7558 19.6397 22.8371
RightFoot  -18.0537 1.25823 23.2632
RightToes  -1.46215e-006 3.27826e-006 1.63871e-007
Spine  -3.97046 2.62665 -0.20808
Spine1  10.2677 -3.70856 22.1116
HEad  -27.1983 -36.328 40.0441
LeftShoulder1  1.44674 -2.87334 -15.9196
LeftArm  26.063 32.2285 -30.1562
LeftForeArm  41.4169 -77.7181 -64.6519
LeftHand  0.351905 0.184559 -7.93375
RightShoulder  1.70958 2.61874 21.6855
RightArm  -20.7578 -5.86948 -12.9777
RightForeArm  10.6454 -4.51151 9.44039
RightHand  -0.921928 5.23683 -10.3458
LeftUpLeg  -31.4744 31.1334 44.7656
LeftLeg  1.9693 11.6506 3.86447
LeftFoot  10.0709 0.206863 -1.41994
LeftToes  1.24762e-006 1.46925e-008 1.29056e-009
681
root  -6.55583 40.9608 -34.2534 21.1876 4.99544 -46.9485
RightUpLeg  -32.7362 -35.1853 -36.3306
RightLeg  62.3477 13.6992 25.8324
RightFoot  -17.9739 1.22374 22.9551
RightToes  -1.46215e-006 3.27826e-006 1.63871e-007
Spine  -2.4462 2.67063 -1.33295
Spine1  10.0953 -2.94504 19.6811
HEad  -25.4794 -37.6865 37.5167
LeftShoulder1  1.45123 -2.79422 -16.3068
LeftArm  25.1865 33.0201 -29.8299
LeftForeArm  41.8304 -77.7791 -65.4613
LeftHand  0.315592 0.302958 -7.30312
RightShoulder  1.75915 2.73726 21.9662
RightArm  -21.032 -5.54162 -11.8014
RightForeArm  9.06392 -4.27697 9.59925
RightHand  -0.912146 4.96873 -10.4912
LeftUpLeg  -29.566 30.3795 43.8991
LeftLeg  3.66625 13.4512 3.74803
LeftFoot  9.96431 0.226993 -1.5306
LeftToes  1.24762e-006 1.46925e-008 1.29056e-009
682
root  -7.46634 40.8819 -34.3295 19.0049 3.08185 -43.1917
RightUpLeg  -33.5243 -36.5639 -28.5706
RightLeg  69.3459 10.0308 26.7195
RightFoot  -14.1685 0.479525 22.9066
RightToes  -1.46215e-006 3.27826e-006 1.63871e-007
Spine  -1.22163 2.70971 -3.20564
Spine1  10.5788 -2.56547 17.8329
HEad  -24.3354 -40.995 37.2701
LeftShoulder1  1.48995 -2.89815 -16.5591
LeftArm  26.8879 32.8528 -28.7991
LeftForeArm  42.2655 -77.7575 -64.6309
LeftHand  0.311115 0.322842 -7.2317
RightShoulder  1.7476 2.68916 22.0016
RightArm  -23.0716 -6.50333 -10.3568
RightForeArm  4.39198 -4.04998 9.14785
RightHand  -0.698412 4.40183 -8.53414
LeftUpLeg  -27.0622 29.3133 42.8383
LeftLeg  5.56919 13.9997 3.42189
LeftFoot  9.31744 0.329293 -2.11753
LeftToes  1.24762e-006 1.46925e-008 1.29056e-009
